<svg xmlns="http://www.w3.org/2000/svg" version="1.1" xmlns:xlink="http://www.w3.org/1999/xlink" viewBox="0 0 200 200"><rect width="200" height="200" fill="url('#gradient')"></rect><defs><linearGradient id="gradient" gradientTransform="rotate(36 0.5 0.5)"><stop offset="0%" stop-color="#0cd8e8"></stop><stop offset="100%" stop-color="#d9e241"></stop></linearGradient></defs><g><g fill="#1b3855" transform="matrix(2.0366850828729284,0,0,2.0366850828729284,8.067314028713575,111.14948304803332)" stroke="#0e5278" stroke-width="0.2"><path d="M10.73-5.36L10.73-5.21Q10.73-2.74 9.62-1.27Q8.52 0.20 6.63 0.20L6.63 0.20Q5.18 0.20 4.24-0.87L4.24-0.87L4.24 4.06L0.95 4.06L0.95-10.57L4.02-10.57L4.12-9.59Q5.07-10.76 6.61-10.76L6.61-10.76Q8.56-10.76 9.65-9.32Q10.73-7.88 10.73-5.36L10.73-5.36ZM7.44-5.06L7.44-5.41Q7.44-8.22 5.80-8.22L5.80-8.22Q4.63-8.22 4.24-7.38L4.24-7.38L4.24-3.22Q4.67-2.34 5.82-2.34L5.82-2.34Q7.39-2.34 7.44-5.06L7.44-5.06ZM18.63-10.64L18.57-7.59L17.49-7.67Q15.94-7.67 15.50-6.69L15.50-6.69L15.50 0L12.21 0L12.21-10.57L15.29-10.57L15.40-9.21Q16.23-10.76 17.71-10.76L17.71-10.76Q18.24-10.76 18.63-10.64L18.63-10.64ZM28.71 0L25.42 0Q25.24-0.32 25.11-0.95L25.11-0.95Q24.20 0.20 22.57 0.20L22.57 0.20Q21.07 0.20 20.03-0.71Q18.98-1.61 18.98-2.98L18.98-2.98Q18.98-4.70 20.25-5.58Q21.52-6.46 23.95-6.46L23.95-6.46L24.96-6.46L24.96-7.01Q24.96-8.47 23.70-8.47L23.70-8.47Q22.53-8.47 22.53-7.31L22.53-7.31L19.24-7.31Q19.24-8.85 20.54-9.80Q21.85-10.76 23.87-10.76Q25.89-10.76 27.06-9.78Q28.23-8.79 28.26-7.07L28.26-7.07L28.26-2.39Q28.28-0.94 28.71-0.17L28.71-0.17L28.71 0ZM23.36-2.15L23.36-2.15Q23.97-2.15 24.38-2.41Q24.79-2.68 24.96-3.01L24.96-3.01L24.96-4.70L24.00-4.70Q22.29-4.70 22.29-3.15L22.29-3.15Q22.29-2.71 22.59-2.43Q22.89-2.15 23.36-2.15ZM35.62-2.97L35.62-2.97Q35.62-3.39 35.18-3.64Q34.74-3.90 33.51-4.17Q32.28-4.44 31.47-4.89Q30.67-5.33 30.25-5.97Q29.83-6.60 29.83-7.42L29.83-7.42Q29.83-8.88 31.04-9.82Q32.24-10.76 34.18-10.76L34.18-10.76Q36.27-10.76 37.54-9.81Q38.81-8.87 38.81-7.32L38.81-7.32L35.51-7.32Q35.51-8.59 34.17-8.59L34.17-8.59Q33.65-8.59 33.30-8.31Q32.95-8.02 32.95-7.59L32.95-7.59Q32.95-7.15 33.38-6.88Q33.81-6.60 34.75-6.43Q35.69-6.25 36.41-6.01L36.41-6.01Q38.79-5.19 38.79-3.07L38.79-3.07Q38.79-1.62 37.50-0.71Q36.22 0.20 34.18 0.20L34.18 0.20Q32.82 0.20 31.76-0.29Q30.69-0.78 30.10-1.62Q29.50-2.46 29.50-3.39L29.50-3.39L32.58-3.39Q32.60-2.66 33.07-2.32Q33.54-1.98 34.27-1.98L34.27-1.98Q34.94-1.98 35.28-2.26Q35.62-2.53 35.62-2.97ZM43.54-15L43.54-9.43Q44.60-10.76 46.24-10.76L46.24-10.76Q47.99-10.76 48.88-9.73Q49.77-8.69 49.79-6.67L49.79-6.67L49.79 0L46.48 0L46.48-6.59Q46.48-7.43 46.14-7.83Q45.80-8.22 44.98-8.22L44.98-8.22Q43.96-8.22 43.54-7.58L43.54-7.58L43.54 0L40.25 0L40.25-15L43.54-15ZM51.55-10.57L54.64-10.57L54.75-9.33Q55.84-10.76 57.76-10.76L57.76-10.76Q59.41-10.76 60.23-9.78Q61.04-8.79 61.07-6.81L61.07-6.81L61.07 0L57.77 0L57.77-6.67Q57.77-7.47 57.45-7.85Q57.13-8.22 56.28-8.22L56.28-8.22Q55.31-8.22 54.84-7.46L54.84-7.46L54.84 0L51.55 0L51.55-10.57ZM72.14 0L68.85 0Q68.67-0.32 68.54-0.95L68.54-0.95Q67.63 0.20 66.00 0.20L66.00 0.20Q64.50 0.20 63.46-0.71Q62.41-1.61 62.41-2.98L62.41-2.98Q62.41-4.70 63.68-5.58Q64.95-6.46 67.37-6.46L67.37-6.46L68.39-6.46L68.39-7.01Q68.39-8.47 67.13-8.47L67.13-8.47Q65.96-8.47 65.96-7.31L65.96-7.31L62.67-7.31Q62.67-8.85 63.97-9.80Q65.27-10.76 67.29-10.76Q69.32-10.76 70.49-9.78Q71.66-8.79 71.69-7.07L71.69-7.07L71.69-2.39Q71.71-0.94 72.14-0.17L72.14-0.17L72.14 0ZM66.79-2.15L66.79-2.15Q67.40-2.15 67.81-2.41Q68.21-2.68 68.39-3.01L68.39-3.01L68.39-4.70L67.43-4.70Q65.71-4.70 65.71-3.15L65.71-3.15Q65.71-2.71 66.02-2.43Q66.32-2.15 66.79-2.15ZM76.98-15L76.98 0L73.68 0L73.68-15L76.98-15ZM85.56 0L83.25-3.94L82.32-3.01L82.32 0L79.03 0L79.03-15.01L82.32-15.01L82.32-7.04L82.66-7.48L85.14-10.57L89.08-10.57L85.38-6.22L89.33 0L85.56 0Z"></path></g></g></svg>